<svg xmlns="http://www.w3.org/2000/svg" version="1.1" viewBox="-5.0 -10.0 110.0 135.0">
 <path d="m24.25 54.441c1.5391 9.2188 6.7188 30.961 21.801 33.629 10.309 1.8281 17.238-2.6602 21.23-6.75 4.8398-4.9492 7.3594-11.27 8.0508-15.172 1.3789-7.7812-0.21094-12.191-1.8906-16.879l-0.16016-0.42969c-1.2695-3.5391-2.0312-7.1719-2.7695-10.699-0.26953-1.2617-0.51953-2.5117-0.80859-3.7617-0.69922-3.0586 0.050781-8.2617 2.1094-14.629 0.44922-1.3711 0.03125-2.8789-1.0508-3.8398-1.3008-1.1602-2.8711-1.6992-4.5508-1.5508-2.7109 0.23047-5.2109 2.1406-6.8203 3.6797-0.30078-0.83984-0.57812-1.6484-0.85156-2.3789-1.1289-3.1797-4.5391-4.8789-7.7695-3.8594-1.6094 0.51172-2.9297 1.6211-3.6992 3.1289-0.78125 1.5195-0.89844 3.2305-0.35937 4.8398l2.5898 7.7109c-1.2383-0.44922-2.8008-0.71094-4.5586-0.28125-1.7109 0.42188-3.0703 1.4102-3.9414 2.8516-0.94141 1.5586-1.1016 3.3516-0.85938 4.5195-1.1484-0.35156-2.5195-0.48828-4.0508-0.12109-1.7109 0.42188-3.0703 1.4102-3.9414 2.8516-0.98047 1.6406-1.1211 3.5391-0.82812 4.6992 0.25 0.94141 0.58984 2.1211 0.96875 3.3789-1.2812-0.019531-2.5117 0.26172-3.7109 0.85156-3 1.4609-4.6992 4.8398-4.1406 8.2188zm5.4492-5.5195c1.0781-0.53125 2.1914-0.64844 3.3594-0.41016 1.1094 3.5195 2.2188 6.8203 2.3086 7.0508 0.19141 0.53906 0.64062 0.91016 1.1602 1 0.23828 0.039062 0.48828 0.03125 0.73828-0.058594 0.78125-0.26953 1.1992-1.1211 0.94141-1.9102-0.03125-0.10156-3.1211-9.2305-4.1797-13.34-0.089844-0.35156-0.089844-1.4414 0.5-2.4102 0.46094-0.75 1.1602-1.25 2.0781-1.4688 2.1016-0.51172 3.7891 0.55859 4.4297 1.0508 1.3203 4.3594 3.0898 9.6016 3.1914 9.8906 0.19141 0.53906 0.64063 0.91016 1.1602 1 0.23828 0.039063 0.48828 0.03125 0.73828-0.058594 0.78125-0.26953 1.1992-1.1211 0.94141-1.9102-0.03125-0.10156-3.1211-9.2305-4.1797-13.34-0.089844-0.35156-0.089844-1.4414 0.5-2.4102 0.46094-0.75 1.1602-1.25 2.0781-1.4688 2.6289-0.64062 4.6914 1.0703 4.7812 1.1406 0.17969 0.14844 0.42188 0.35156 0.51953 0.66016l3.7617 11.191c0.23828 0.69922 0.94141 1.1992 1.6797 1.0781 0.37109-0.058594 0.67969-0.23828 0.89844-0.48828 0.33984-0.39063 0.46875-0.94141 0.30078-1.4688l-7.8008-23.32c-0.21094-0.64062-0.26953-1.3203-0.089844-1.9688 0.32812-1.1914 1.25-2.0508 2.4219-2.3281 1.6406-0.37891 3.3008 0.64844 3.8594 2.2383 2.2109 6.2109 5.9883 16.82 6.8281 19.398 0.28906 0.87109 0.41016 1.2305 0.85156 2.3086 0.32813 0.82031 1.3008 1.1719 2.0781 0.76953 0.67969-0.35156 0.98828-1.1602 0.71094-1.8789-0.42969-1.1094-0.57031-1.5117-0.78125-2.1406-0.64062-1.9492-2.9102-8.3906-4.9492-14.109 1.2617-1.3789 3.7383-3.6484 5.9609-3.8398 0.87109-0.070313 1.5898 0.17969 2.2891 0.78906 0.19922 0.17969 0.26172 0.46094 0.17969 0.71094-1.5781 4.9297-3.2617 11.781-2.1289 16.371 0.23828 0.98828 0.5 1.9805 0.66016 2.9883 0.070312 0.48047 0.21094 1.0117 0.30859 1.5195 0.67969 2.5898 1.4219 5.5508 1.9219 7.8398 0.23047 0.76172 0.46875 1.5312 0.73828 2.2812l0.16016 0.42969c1.6797 4.6602 3 8.3516 1.7617 15.34-0.62109 3.4805-2.8789 9.1289-7.2383 13.602-5.0703 5.1914-11.309 7.1797-18.559 5.8906-13.57-2.3984-18.25-24.461-19.359-31.16h-0.019531c-0.33984-2.0781 0.67969-4.1484 2.5-5.0391z"/>
</svg>